solid OpenSCAD_Model
  facet normal 0.989821 0.142315 0
    outer loop
      vertex 7 0 5
      vertex 6.71645 1.97213 0
      vertex 6.71645 1.97213 5
    endloop
  endfacet
  facet normal 0.989821 0.142315 0
    outer loop
      vertex 6.71645 1.97213 0
      vertex 7 0 5
      vertex 7 0 0
    endloop
  endfacet
  facet normal 0.909632 0.415415 0
    outer loop
      vertex 6.71645 1.97213 5
      vertex 5.88877 3.78449 0
      vertex 5.88877 3.78449 5
    endloop
  endfacet
  facet normal 0.909632 0.415415 0
    outer loop
      vertex 5.88877 3.78449 0
      vertex 6.71645 1.97213 5
      vertex 6.71645 1.97213 0
    endloop
  endfacet
  facet normal 0.755749 0.654861 0
    outer loop
      vertex 5.88877 3.78449 5
      vertex 4.58402 5.29025 0
      vertex 4.58402 5.29025 5
    endloop
  endfacet
  facet normal 0.755749 0.654861 0
    outer loop
      vertex 4.58402 5.29025 0
      vertex 5.88877 3.78449 5
      vertex 5.88877 3.78449 0
    endloop
  endfacet
  facet normal 0.540641 0.841253 -0
    outer loop
      vertex 4.58402 5.29025 0
      vertex 2.90791 6.36742 5
      vertex 4.58402 5.29025 5
    endloop
  endfacet
  facet normal 0.540641 0.841253 0
    outer loop
      vertex 2.90791 6.36742 5
      vertex 4.58402 5.29025 0
      vertex 2.90791 6.36742 0
    endloop
  endfacet
  facet normal 0.281733 0.959493 -0
    outer loop
      vertex 2.90791 6.36742 0
      vertex 0.996204 6.92875 5
      vertex 2.90791 6.36742 5
    endloop
  endfacet
  facet normal 0.281733 0.959493 0
    outer loop
      vertex 0.996204 6.92875 5
      vertex 2.90791 6.36742 0
      vertex 0.996204 6.92875 0
    endloop
  endfacet
  facet normal 0 1 -0
    outer loop
      vertex 0.996204 6.92875 0
      vertex -0.996204 6.92875 5
      vertex 0.996204 6.92875 5
    endloop
  endfacet
  facet normal 0 1 0
    outer loop
      vertex -0.996204 6.92875 5
      vertex 0.996204 6.92875 0
      vertex -0.996204 6.92875 0
    endloop
  endfacet
  facet normal -0.281733 0.959493 0
    outer loop
      vertex -0.996204 6.92875 0
      vertex -2.90791 6.36742 5
      vertex -0.996204 6.92875 5
    endloop
  endfacet
  facet normal -0.281733 0.959493 0
    outer loop
      vertex -2.90791 6.36742 5
      vertex -0.996204 6.92875 0
      vertex -2.90791 6.36742 0
    endloop
  endfacet
  facet normal -0.540641 0.841253 0
    outer loop
      vertex -2.90791 6.36742 0
      vertex -4.58402 5.29025 5
      vertex -2.90791 6.36742 5
    endloop
  endfacet
  facet normal -0.540641 0.841253 0
    outer loop
      vertex -4.58402 5.29025 5
      vertex -2.90791 6.36742 0
      vertex -4.58402 5.29025 0
    endloop
  endfacet
  facet normal -0.755749 0.654861 0
    outer loop
      vertex -5.88877 3.78449 0
      vertex -4.58402 5.29025 5
      vertex -4.58402 5.29025 0
    endloop
  endfacet
  facet normal -0.755749 0.654861 0
    outer loop
      vertex -4.58402 5.29025 5
      vertex -5.88877 3.78449 0
      vertex -5.88877 3.78449 5
    endloop
  endfacet
  facet normal -0.909632 0.415415 0
    outer loop
      vertex -6.71645 1.97213 0
      vertex -5.88877 3.78449 5
      vertex -5.88877 3.78449 0
    endloop
  endfacet
  facet normal -0.909632 0.415415 0
    outer loop
      vertex -5.88877 3.78449 5
      vertex -6.71645 1.97213 0
      vertex -6.71645 1.97213 5
    endloop
  endfacet
  facet normal -0.989821 0.142315 0
    outer loop
      vertex -7 3.96588e-15 0
      vertex -6.71645 1.97213 5
      vertex -6.71645 1.97213 0
    endloop
  endfacet
  facet normal -0.989821 0.142315 0
    outer loop
      vertex -6.71645 1.97213 5
      vertex -7 3.96588e-15 0
      vertex -7 3.96588e-15 5
    endloop
  endfacet
  facet normal -0.989821 -0.142315 0
    outer loop
      vertex -6.71645 -1.97213 0
      vertex -7 3.96588e-15 5
      vertex -7 3.96588e-15 0
    endloop
  endfacet
  facet normal -0.989821 -0.142315 0
    outer loop
      vertex -7 3.96588e-15 5
      vertex -6.71645 -1.97213 0
      vertex -6.71645 -1.97213 5
    endloop
  endfacet
  facet normal -0.909632 -0.415415 0
    outer loop
      vertex -5.88877 -3.78449 0
      vertex -6.71645 -1.97213 5
      vertex -6.71645 -1.97213 0
    endloop
  endfacet
  facet normal -0.909632 -0.415415 0
    outer loop
      vertex -6.71645 -1.97213 5
      vertex -5.88877 -3.78449 0
      vertex -5.88877 -3.78449 5
    endloop
  endfacet
  facet normal -0.755749 -0.654861 0
    outer loop
      vertex -4.58402 -5.29025 0
      vertex -5.88877 -3.78449 5
      vertex -5.88877 -3.78449 0
    endloop
  endfacet
  facet normal -0.755749 -0.654861 0
    outer loop
      vertex -5.88877 -3.78449 5
      vertex -4.58402 -5.29025 0
      vertex -4.58402 -5.29025 5
    endloop
  endfacet
  facet normal -0.540641 -0.841253 0
    outer loop
      vertex -4.58402 -5.29025 0
      vertex -2.90791 -6.36742 5
      vertex -4.58402 -5.29025 5
    endloop
  endfacet
  facet normal -0.540641 -0.841253 -0
    outer loop
      vertex -2.90791 -6.36742 5
      vertex -4.58402 -5.29025 0
      vertex -2.90791 -6.36742 0
    endloop
  endfacet
  facet normal -0.281733 -0.959493 0
    outer loop
      vertex -2.90791 -6.36742 0
      vertex -0.996204 -6.92875 5
      vertex -2.90791 -6.36742 5
    endloop
  endfacet
  facet normal -0.281733 -0.959493 -0
    outer loop
      vertex -0.996204 -6.92875 5
      vertex -2.90791 -6.36742 0
      vertex -0.996204 -6.92875 0
    endloop
  endfacet
  facet normal 0 -1 0
    outer loop
      vertex -0.996204 -6.92875 0
      vertex 0.996204 -6.92875 5
      vertex -0.996204 -6.92875 5
    endloop
  endfacet
  facet normal 0 -1 -0
    outer loop
      vertex 0.996204 -6.92875 5
      vertex -0.996204 -6.92875 0
      vertex 0.996204 -6.92875 0
    endloop
  endfacet
  facet normal 0.281733 -0.959493 0
    outer loop
      vertex 0.996204 -6.92875 0
      vertex 2.90791 -6.36742 5
      vertex 0.996204 -6.92875 5
    endloop
  endfacet
  facet normal 0.281733 -0.959493 0
    outer loop
      vertex 2.90791 -6.36742 5
      vertex 0.996204 -6.92875 0
      vertex 2.90791 -6.36742 0
    endloop
  endfacet
  facet normal 0.540641 -0.841253 0
    outer loop
      vertex 2.90791 -6.36742 0
      vertex 4.58402 -5.29025 5
      vertex 2.90791 -6.36742 5
    endloop
  endfacet
  facet normal 0.540641 -0.841253 0
    outer loop
      vertex 4.58402 -5.29025 5
      vertex 2.90791 -6.36742 0
      vertex 4.58402 -5.29025 0
    endloop
  endfacet
  facet normal 0.755749 -0.654861 0
    outer loop
      vertex 4.58402 -5.29025 5
      vertex 5.88877 -3.78449 0
      vertex 5.88877 -3.78449 5
    endloop
  endfacet
  facet normal 0.755749 -0.654861 0
    outer loop
      vertex 5.88877 -3.78449 0
      vertex 4.58402 -5.29025 5
      vertex 4.58402 -5.29025 0
    endloop
  endfacet
  facet normal 0.909632 -0.415415 0
    outer loop
      vertex 5.88877 -3.78449 5
      vertex 6.71645 -1.97213 0
      vertex 6.71645 -1.97213 5
    endloop
  endfacet
  facet normal 0.909632 -0.415415 0
    outer loop
      vertex 6.71645 -1.97213 0
      vertex 5.88877 -3.78449 5
      vertex 5.88877 -3.78449 0
    endloop
  endfacet
  facet normal 0.989821 -0.142315 0
    outer loop
      vertex 6.71645 -1.97213 5
      vertex 7 0 0
      vertex 7 0 5
    endloop
  endfacet
  facet normal 0.989821 -0.142315 0
    outer loop
      vertex 7 0 0
      vertex 6.71645 -1.97213 5
      vertex 6.71645 -1.97213 0
    endloop
  endfacet
  facet normal 0 0 -1
    outer loop
      vertex 6.71645 -1.97213 0
      vertex 6.71645 1.97213 0
      vertex 7 0 0
    endloop
  endfacet
  facet normal 0 0 -1
    outer loop
      vertex 5.88877 -3.78449 0
      vertex 6.71645 1.97213 0
      vertex 6.71645 -1.97213 0
    endloop
  endfacet
  facet normal 0 0 -1
    outer loop
      vertex 5.88877 -3.78449 0
      vertex 5.88877 3.78449 0
      vertex 6.71645 1.97213 0
    endloop
  endfacet
  facet normal 0 0 -1
    outer loop
      vertex 4.58402 -5.29025 0
      vertex 5.88877 3.78449 0
      vertex 5.88877 -3.78449 0
    endloop
  endfacet
  facet normal 0 0 -1
    outer loop
      vertex 4.58402 -5.29025 0
      vertex 4.58402 5.29025 0
      vertex 5.88877 3.78449 0
    endloop
  endfacet
  facet normal 0 0 -1
    outer loop
      vertex 2.90791 -6.36742 0
      vertex 4.58402 5.29025 0
      vertex 4.58402 -5.29025 0
    endloop
  endfacet
  facet normal 0 0 -1
    outer loop
      vertex 2.90791 -6.36742 0
      vertex 2.90791 6.36742 0
      vertex 4.58402 5.29025 0
    endloop
  endfacet
  facet normal 0 0 -1
    outer loop
      vertex 0.996204 -6.92875 0
      vertex 2.90791 6.36742 0
      vertex 2.90791 -6.36742 0
    endloop
  endfacet
  facet normal 0 0 -1
    outer loop
      vertex 0.996204 -6.92875 0
      vertex 0.996204 6.92875 0
      vertex 2.90791 6.36742 0
    endloop
  endfacet
  facet normal 0 0 -1
    outer loop
      vertex -0.996204 -6.92875 0
      vertex 0.996204 6.92875 0
      vertex 0.996204 -6.92875 0
    endloop
  endfacet
  facet normal 0 0 -1
    outer loop
      vertex -0.996204 -6.92875 0
      vertex -0.996204 6.92875 0
      vertex 0.996204 6.92875 0
    endloop
  endfacet
  facet normal 0 0 -1
    outer loop
      vertex -2.90791 -6.36742 0
      vertex -0.996204 6.92875 0
      vertex -0.996204 -6.92875 0
    endloop
  endfacet
  facet normal 0 0 -1
    outer loop
      vertex -2.90791 -6.36742 0
      vertex -2.90791 6.36742 0
      vertex -0.996204 6.92875 0
    endloop
  endfacet
  facet normal 0 0 -1
    outer loop
      vertex -4.58402 -5.29025 0
      vertex -2.90791 6.36742 0
      vertex -2.90791 -6.36742 0
    endloop
  endfacet
  facet normal 0 0 -1
    outer loop
      vertex -4.58402 -5.29025 0
      vertex -4.58402 5.29025 0
      vertex -2.90791 6.36742 0
    endloop
  endfacet
  facet normal 0 0 -1
    outer loop
      vertex -5.88877 -3.78449 0
      vertex -4.58402 5.29025 0
      vertex -4.58402 -5.29025 0
    endloop
  endfacet
  facet normal 0 0 -1
    outer loop
      vertex -5.88877 -3.78449 0
      vertex -5.88877 3.78449 0
      vertex -4.58402 5.29025 0
    endloop
  endfacet
  facet normal 0 0 -1
    outer loop
      vertex -6.71645 -1.97213 0
      vertex -5.88877 3.78449 0
      vertex -5.88877 -3.78449 0
    endloop
  endfacet
  facet normal 0 0 -1
    outer loop
      vertex -6.71645 -1.97213 0
      vertex -6.71645 1.97213 0
      vertex -5.88877 3.78449 0
    endloop
  endfacet
  facet normal 0 -0 -1
    outer loop
      vertex -6.71645 1.97213 0
      vertex -6.71645 -1.97213 0
      vertex -7 3.96588e-15 0
    endloop
  endfacet
  facet normal 0 0 1
    outer loop
      vertex 6.71645 1.97213 5
      vertex 6.71645 -1.97213 5
      vertex 7 0 5
    endloop
  endfacet
  facet normal 0 0 1
    outer loop
      vertex 5.88877 3.78449 5
      vertex 6.71645 -1.97213 5
      vertex 6.71645 1.97213 5
    endloop
  endfacet
  facet normal 0 0 1
    outer loop
      vertex 5.88877 3.78449 5
      vertex 5.88877 -3.78449 5
      vertex 6.71645 -1.97213 5
    endloop
  endfacet
  facet normal 0 0 1
    outer loop
      vertex 4.58402 5.29025 5
      vertex 5.88877 -3.78449 5
      vertex 5.88877 3.78449 5
    endloop
  endfacet
  facet normal 0 0 1
    outer loop
      vertex 4.58402 5.29025 5
      vertex 4.58402 -5.29025 5
      vertex 5.88877 -3.78449 5
    endloop
  endfacet
  facet normal 0 0 1
    outer loop
      vertex 2.90791 6.36742 5
      vertex 4.58402 -5.29025 5
      vertex 4.58402 5.29025 5
    endloop
  endfacet
  facet normal 0 0 1
    outer loop
      vertex 2.90791 6.36742 5
      vertex 2.90791 -6.36742 5
      vertex 4.58402 -5.29025 5
    endloop
  endfacet
  facet normal 0 0 1
    outer loop
      vertex 0.996204 6.92875 5
      vertex 2.90791 -6.36742 5
      vertex 2.90791 6.36742 5
    endloop
  endfacet
  facet normal 0 0 1
    outer loop
      vertex 0.996204 6.92875 5
      vertex 0.996204 -6.92875 5
      vertex 2.90791 -6.36742 5
    endloop
  endfacet
  facet normal -0 0 1
    outer loop
      vertex -0.996204 6.92875 5
      vertex 0.996204 -6.92875 5
      vertex 0.996204 6.92875 5
    endloop
  endfacet
  facet normal 0 0 1
    outer loop
      vertex -0.996204 6.92875 5
      vertex -0.996204 -6.92875 5
      vertex 0.996204 -6.92875 5
    endloop
  endfacet
  facet normal -0 0 1
    outer loop
      vertex -2.90791 6.36742 5
      vertex -0.996204 -6.92875 5
      vertex -0.996204 6.92875 5
    endloop
  endfacet
  facet normal 0 0 1
    outer loop
      vertex -2.90791 6.36742 5
      vertex -2.90791 -6.36742 5
      vertex -0.996204 -6.92875 5
    endloop
  endfacet
  facet normal -0 0 1
    outer loop
      vertex -4.58402 5.29025 5
      vertex -2.90791 -6.36742 5
      vertex -2.90791 6.36742 5
    endloop
  endfacet
  facet normal 0 0 1
    outer loop
      vertex -4.58402 5.29025 5
      vertex -4.58402 -5.29025 5
      vertex -2.90791 -6.36742 5
    endloop
  endfacet
  facet normal -0 0 1
    outer loop
      vertex -5.88877 3.78449 5
      vertex -4.58402 -5.29025 5
      vertex -4.58402 5.29025 5
    endloop
  endfacet
  facet normal 0 0 1
    outer loop
      vertex -5.88877 3.78449 5
      vertex -5.88877 -3.78449 5
      vertex -4.58402 -5.29025 5
    endloop
  endfacet
  facet normal -0 0 1
    outer loop
      vertex -6.71645 1.97213 5
      vertex -5.88877 -3.78449 5
      vertex -5.88877 3.78449 5
    endloop
  endfacet
  facet normal 0 0 1
    outer loop
      vertex -6.71645 1.97213 5
      vertex -6.71645 -1.97213 5
      vertex -5.88877 -3.78449 5
    endloop
  endfacet
  facet normal 0 -0 1
    outer loop
      vertex -6.71645 -1.97213 5
      vertex -6.71645 1.97213 5
      vertex -7 3.96588e-15 5
    endloop
  endfacet
endsolid OpenSCAD_Model
